PathFileType	4	(X/Y/Z)	D:\TRACE\v60_Jaco2_6-2-23\BothDRS_Motion2_10-platform.trc
DataRate	CameraRate	NumFrames	NumMarkers	Units	OrigDataRate	OrigDataStartFrame	OrigNumFrames
100.00	100.00	      24	5	mm	100.00	6563	      7500
Frame#	Time	Left_Front			Right_Front			Left_Aft			Right_Aft			Post			
		X1	Y1	Z1	X2	Y2	Z2	X3	Y3	Z3	X4	Y4	Z4	X5	Y5	Z5	

6563	65.620	-804.83380	-32.22374	-647.62939	765.32117	-30.92950	-652.71625	-712.85376	35.68215	485.63791	729.69824	36.51833	495.04462	-16.28612	1238.72473	-1130.94873	
6564	65.630	-803.49097	-30.92295	-647.35779	766.43494	-29.84673	-652.85193	-711.65472	34.85102	485.87021	730.51807	35.74501	495.39600	-15.36273	1240.41882	-1130.42285	
6565	65.640	-802.06207	-29.66791	-647.29346	767.66455	-28.60332	-652.38226	-710.42316	34.11423	486.27213	732.09711	34.70288	495.58380	-14.20106	1242.38269	-1130.93408	
6566	65.650	-801.14117	-28.43226	-646.97693	769.27972	-26.76918	-651.50500	-709.36157	33.46874	486.59427	733.03973	33.81283	495.78610	-13.20479	1244.36536	-1131.63184	
6567	65.660	-800.20099	-27.25502	-646.94659	769.71198	-25.68083	-651.99298	-707.95984	32.49057	486.85934	733.56183	32.71063	496.45541	-11.87753	1246.21265	-1131.81897	
6568	65.670	-799.17725	-25.85806	-646.63196	770.91357	-24.61217	-651.81445	-707.24683	31.63899	487.14911	734.59882	31.37042	496.20914	-10.44950	1247.87720	-1131.62708	
6569	65.680	-797.79578	-24.32218	-646.42529	772.29529	-23.46754	-651.42810	-705.97546	30.47797	487.60834	734.99243	29.85978	496.21600	-9.07282	1249.89246	-1129.69849	
6570	65.690	-796.66718	-23.11517	-645.95001	772.86957	-22.07176	-651.35254	-704.82928	29.77230	488.06982	737.26428	29.91694	496.84052	-7.18784	1252.14148	-1127.61670	
6571	65.700	-795.66461	-21.76047	-645.75067	774.66107	-20.50331	-650.88733	-703.69604	28.93654	488.53415	739.89282	30.25769	498.79709	-6.54245	1254.71448	-1125.21814	
6572	65.710	-794.48865	-20.14867	-645.48083	775.63708	-19.08445	-650.53638	-702.46448	28.01601	488.80518	740.62152	28.82548	498.68774	-5.62205	1256.98291	-1123.17834	
6573	65.720	-793.27509	-19.01296	-645.10333	776.75775	-17.82092	-650.08264	-701.40796	27.08787	489.14240	741.26947	27.57300	498.68506	-4.37485	1258.93091	-1121.66895	
6574	65.730	-792.19293	-17.72968	-644.88391	777.82556	-16.53245	-650.24744	-700.31030	26.01947	489.56384	742.26251	26.22908	498.78244	-3.36569	1261.31628	-1119.81006	
6575	65.740	-791.12537	-16.13304	-644.73010	778.72321	-14.82994	-650.01587	-699.07855	25.05966	489.79761	743.31451	25.26101	499.18011	-1.85268	1263.50903	-1118.45935	
6576	65.750	-789.97559	-14.70770	-644.49554	780.00000	-13.87627	-649.69604	-698.13190	24.11892	490.11044	744.68707	24.43769	499.63559	-1.04312	1265.83252	-1116.43872	
6577	65.760	-788.63989	-13.00691	-644.31720	781.11877	-12.13132	-649.28687	-696.87531	23.19573	490.49313	745.53613	23.38036	499.86911	0.73598	1268.09521	-1114.08032	
6578	65.770	-787.59882	-11.65431	-643.82544	782.31451	-10.64844	-649.16913	-695.66901	22.25473	490.89166	746.59009	22.27104	500.18454	1.96153	1270.39478	-1111.83447	
6579	65.780	-786.56342	-10.37028	-643.32507	783.50415	-9.27051	-648.69171	-694.49078	21.21942	491.29071	747.44989	21.21338	500.66000	2.87880	1273.04578	-1109.24731	
6580	65.790	-785.60944	-8.89067	-643.42102	784.52063	-7.96212	-648.50708	-693.37415	20.10641	491.62216	748.61920	20.18059	501.25494	4.20591	1275.33008	-1107.75671	
6581	65.800	-784.10968	-7.47881	-642.92761	785.69568	-6.19607	-648.20630	-692.38837	19.18039	491.97516	750.37854	19.21209	501.30478	5.31663	1277.53479	-1105.18994	
6582	65.810	-782.98865	-5.85302	-642.55859	786.88000	-4.84424	-647.88806	-691.18506	18.07620	492.33057	751.07751	18.15002	501.50015	6.46702	1280.15808	-1103.01892	
6583	65.820	-782.09473	-4.18708	-642.38977	787.94202	-3.25440	-647.27802	-690.13013	17.25701	492.68289	752.31531	17.02857	501.99765	8.07148	1282.66028	-1100.79834	
6584	65.830	-780.99310	-2.97865	-642.00494	788.94946	-1.87072	-647.19153	-688.97205	16.12971	493.10318	753.18835	15.96517	502.50165	8.69043	1285.02576	-1098.39587	
6585	65.840	-779.89624	-1.30420	-641.77838	790.19739	-0.23793	-646.69147	-687.97247	15.16320	493.30981	754.04919	14.82952	503.11514	10.05062	1287.46594	-1095.83594	
6586	65.850	-778.74237	0.22511	-641.29077	791.02264	1.36175	-646.60223	-686.81476	13.93656	493.81805	755.50836	13.70267	503.17532	11.03438	1290.00989	-1093.39844	
